# xmcd
#
# Track frame offsets:
#	150
#	16742
#	30439
#	45972
#	59002
#	73046
#	92085
#	107476
#	122002
#	142209
#	155616
#	164641
#	180904
#	200495
#	210941
#
# Disc length: 2986 seconds
#
# Revision: 1
# Processed by: cddbd v1.5.2PL0 Copyright (c) Steve Scherf et al.
# Submitted via: audiograbber 1.83.01
#
DISCID=c70ba80f
DTITLE=Fahnder Feat. The Lord - Rohes Fleisch
DYEAR=2007
DGENRE=Acoustic
TTITLE0=Strandebar
TTITLE1=Futtenalarm
TTITLE2=Rentnerin
TTITLE3=Country Lilly
TTITLE4=Auf der Bahn
TTITLE5=Readhead On A Moped
TTITLE6=Niederrhein
TTITLE7=Illusion
TTITLE8=Peniscillin
TTITLE9=Rockin` Chair (Cover)
TTITLE10=World Full Of Hate (Cover)
TTITLE11=Redemption Song (Cover)
TTITLE12=Rockerlocke (Cover)
TTITLE13=Der wilde Westen (Cover)
TTITLE14=Bis zum bitteren Ende (Cover)
EXTD=Ihre größten Erfoge und schönsten Coverversionen\n\nwww.gitarrenlord.de\ni
EXTD=nfo@gitarrenlord.de
EXTT0=
EXTT1=
EXTT2=
EXTT3=
EXTT4=
EXTT5=
EXTT6=
EXTT7=
EXTT8=
EXTT9=Mädels No Mädels
EXTT10=Dropkick Murphys
EXTT11=Bob Marley
EXTT12=unbekannt
EXTT13=Truck Stop
EXTT14=Die Toten Hosen
PLAYORDER=
